<?xml version="1.0" standalone="no"?>
<!DOCTYPE svg PUBLIC "-//W3C//DTD SVG 20010904//EN"
 "http://www.w3.org/TR/2001/REC-SVG-20010904/DTD/svg10.dtd">
<svg version="1.0" xmlns="http://www.w3.org/2000/svg"
 width="300.000000pt" height="300.000000pt" viewBox="0 0 300.000000 300.000000"
 preserveAspectRatio="xMidYMid meet">
<metadata>
Created by potrace 1.10, written by Peter Selinger 2001-2011
</metadata>
<g transform="translate(0.000000,300.000000) scale(0.050000,-0.050000)"
fill="#000000" stroke="none">
<path d="M537 5906 c-64 -40 -215 -287 -299 -490 -274 -664 -163 -1265 317
-1718 l135 -128 -44 -111 c-53 -135 -86 -324 -86 -501 0 -371 -167 -890 -401
-1249 l-79 -122 0 -532 c0 -919 58 -1001 717 -1004 362 -2 423 7 423 61 0 17
7 28 15 24 152 -78 175 -82 534 -84 272 -2 364 4 385 24 93 94 -84 370 -274
426 l-80 24 0 305 0 304 135 82 c199 121 435 303 589 455 l135 134 146 -42
c170 -49 355 -84 449 -84 l66 0 0 -605 c0 -1000 17 -1019 916 -1020 622 0 604
-3 604 107 0 146 -134 318 -247 318 -30 0 -33 81 -33 899 l0 899 49 73 c130
191 137 238 150 966 13 775 -10 710 254 730 561 44 919 333 960 775 14 153 23
143 -192 218 -343 118 -505 234 -637 454 -200 336 -374 433 -793 443 -597 14
-646 -35 -1013 -1024 -266 -717 -283 -749 -454 -816 -147 -58 -1510 -90 -1694
-40 -648 177 -767 716 -322 1452 166 273 -72 558 -331 397z m202 -183 c15 -29
6 -59 -43 -135 -479 -749 -348 -1403 334 -1678 l140 -57 787 5 c792 5 957 19
1037 86 15 12 29 18 31 14 3 -4 15 -26 27 -48 30 -54 124 -53 161 2 25 37 23
48 -10 90 -39 47 -38 48 7 102 50 59 106 197 383 944 253 684 296 724 751 709
352 -12 491 -96 659 -396 89 -160 230 -284 437 -384 167 -82 178 -91 179 -150
1 -43 20 -81 63 -123 l62 -61 -64 -92 c-128 -187 -336 -287 -630 -305 -99 -6
-207 -22 -241 -36 l-61 -24 -3 187 c-6 388 -234 1007 -371 1007 -116 0 -119
-71 -14 -280 316 -629 244 -1304 -144 -1335 -356 -29 -540 611 -324 1126 55
133 11 232 -91 199 -136 -43 -234 -690 -151 -1000 125 -467 518 -661 845 -417
l65 49 0 -162 c0 -151 -4 -165 -54 -209 -60 -51 -43 -151 25 -151 61 0 33
-520 -36 -667 -68 -146 -255 -332 -446 -445 l-139 -82 -5 -805 c-6 -876 -9
-849 112 -868 42 -7 93 -31 113 -53 36 -40 35 -40 -179 -40 -433 0 -431 -5
-431 876 l0 682 -44 31 c-28 19 -88 31 -161 31 -223 0 -456 65 -903 250 -393
164 -549 163 -652 -4 -162 -261 -534 -572 -920 -769 l-170 -87 -5 -413 c-6
-457 -1 -477 117 -477 67 0 157 -41 197 -89 38 -45 -452 -46 -546 0 -141 68
-142 76 -149 704 l-6 565 94 155 c242 398 351 770 387 1315 17 272 47 405 110
495 56 80 37 119 -132 274 -506 463 -592 1029 -260 1699 133 266 211 340 262
245z m3641 -4491 c0 -925 -7 -877 122 -900 167 -30 161 -92 -9 -92 -136 0
-153 4 -153 37 0 58 -72 135 -170 183 l-90 44 0 693 0 693 88 47 c49 26 109
68 134 95 25 26 52 48 61 48 10 0 17 -381 17 -848z m-2105 724 c102 -34 185
-69 185 -78 0 -47 -468 -410 -710 -552 -66 -39 -123 -73 -126 -76 -4 -3 -7
-193 -7 -422 0 -463 2 -468 137 -468 45 0 86 -19 131 -59 l65 -60 -260 0
c-440 -1 -453 18 -458 652 l-3 447 171 128 c193 144 415 370 484 493 55 98 91
98 391 -5z m-1235 -1116 l0 -399 -65 39 c-36 22 -81 40 -100 40 -32 0 -35 28
-35 305 l0 305 95 53 c52 29 97 53 100 55 3 1 5 -178 5 -398z"/>
<path d="M4893 5175 c-71 -52 -67 -175 6 -175 134 0 192 102 97 169 -54 37
-59 38 -103 6z"/>
<path d="M3251 3721 c-41 -46 -27 -111 32 -142 86 -46 182 88 113 157 -36 36
-105 29 -145 -15z"/>
<path d="M3555 3558 c-40 -23 -47 -118 -11 -154 61 -61 156 -13 156 79 0 79
-73 117 -145 75z"/>
<path d="M3824 3356 c-62 -62 12 -193 95 -166 22 7 51 31 62 53 46 86 -88 182
-157 113z"/>
<path d="M4204 3256 c-61 -61 -13 -156 80 -156 72 0 112 72 77 137 -25 48
-117 59 -157 19z"/>
<path d="M2011 2869 c-79 -80 33 -202 127 -136 46 32 56 105 18 143 -34 34
-107 30 -145 -7z"/>
<path d="M1924 2496 c-56 -56 -14 -156 66 -156 23 0 53 11 66 24 13 13 24 43
24 66 0 23 -11 53 -24 66 -13 13 -43 24 -66 24 -23 0 -53 -11 -66 -24z"/>
<path d="M3341 2481 c-33 -60 -25 -97 28 -132 86 -57 181 37 131 130 -29 54
-131 56 -159 2z"/>
<path d="M3337 2091 c-40 -87 29 -163 118 -129 101 38 73 178 -35 178 -45 0
-67 -13 -83 -49z"/>
</g>
</svg>
