<?xml version="1.0" standalone="no"?>
<!DOCTYPE svg PUBLIC "-//W3C//DTD SVG 20010904//EN"
 "http://www.w3.org/TR/2001/REC-SVG-20010904/DTD/svg10.dtd">
<svg version="1.0" xmlns="http://www.w3.org/2000/svg"
 width="300.000000pt" height="300.000000pt" viewBox="0 0 300.000000 300.000000"
 preserveAspectRatio="xMidYMid meet">
<metadata>
Created by potrace 1.10, written by Peter Selinger 2001-2011
</metadata>
<g transform="translate(0.000000,300.000000) scale(0.050000,-0.050000)"
fill="#000000" stroke="none">
<path d="M2990 5988 c-541 -56 -1222 -477 -1364 -842 -5 -13 -38 -30 -73 -37
-152 -33 -356 -198 -435 -352 -128 -253 22 -977 203 -977 48 0 57 -11 78 -95
39 -155 141 -382 234 -521 105 -156 105 -139 5 -235 -234 -228 -440 -561 -481
-782 -12 -65 -25 -128 -29 -142 -4 -16 -45 -25 -114 -25 -454 0 -736 -498
-742 -1310 -3 -501 -6 -498 368 -499 276 -1 436 49 508 160 50 75 78 62 62
-29 -28 -166 192 -237 878 -282 511 -34 657 -8 675 118 11 74 55 75 70 2 24
-119 60 -127 523 -114 574 15 949 82 1015 182 l29 45 145 -38 c210 -56 643
-60 723 -8 l57 37 -11 393 c-26 912 -253 1341 -710 1343 -186 0 -172 31 20 45
1144 87 1488 1644 508 2297 -153 102 -156 111 -96 318 65 227 74 554 16 660
-141 258 -437 408 -670 338 -68 -20 -80 -16 -197 62 -319 213 -799 329 -1195
288z m717 -168 c671 -226 1048 -680 1205 -1450 5 -24 57 -68 127 -108 792
-451 758 -1626 -58 -2042 -194 -98 -584 -166 -522 -91 54 65 -30 96 -87 33
-130 -143 -471 -283 -727 -297 -785 -44 -1389 685 -1194 1440 21 80 25 127 12
140 -105 105 -188 -423 -113 -712 17 -63 30 -119 30 -124 0 -6 -54 25 -121 67
-352 223 -600 544 -737 949 l-58 171 95 62 c184 119 301 304 301 476 0 51 7
55 59 26 69 -36 99 34 36 86 -65 56 -95 115 -95 192 0 70 -30 96 -71 61 -22
-18 -29 -73 -29 -224 0 -267 -23 -335 -152 -453 -270 -247 -321 -215 -420 268
-120 586 388 949 798 572 95 -88 154 -105 154 -44 0 72 -290 282 -389 282 -17
0 -31 8 -31 17 0 21 239 300 303 352 260 215 503 330 887 419 151 36 605 -3
797 -68z m986 -302 c216 -104 320 -301 299 -568 -22 -290 -33 -300 -110 -103
-80 207 -221 427 -370 578 -60 61 -104 117 -97 123 27 27 198 9 278 -30z
m-2521 -2898 c78 -51 168 -104 200 -117 36 -15 85 -69 127 -139 182 -299 486
-513 828 -584 l118 -24 -12 -133 c-6 -73 -18 -242 -25 -376 -15 -285 -9 -272
-142 -315 -207 -69 -379 -280 -427 -527 -28 -142 -51 -159 -70 -50 -49 296
-184 470 -444 576 l-115 47 -13 146 c-7 80 -20 343 -28 583 -16 445 -28 502
-94 436 -23 -23 10 -978 38 -1106 l11 -54 -167 -7 c-92 -3 -170 -5 -173 -3
-13 6 -45 418 -60 746 -14 320 -24 360 -81 323 -26 -16 -9 -584 29 -982 l13
-130 -72 -34 c-101 -49 -226 -167 -289 -274 l-54 -92 -5 110 c-3 61 -19 269
-35 464 -80 942 -4 1239 434 1707 l121 129 122 -114 c68 -62 187 -155 265
-206z m2232 -934 c24 -390 -5 -968 -57 -1135 -10 -32 -19 -25 -56 47 -57 112
-197 253 -296 297 l-78 35 11 130 c6 72 17 270 25 442 l13 312 124 54 c68 29
154 75 192 101 95 66 101 51 122 -283z m394 161 c169 -84 323 -352 372 -647
l15 -89 -81 73 c-144 130 -417 165 -372 48 9 -22 38 -32 95 -32 256 0 393
-223 393 -637 0 -314 6 -303 -161 -303 l-97 0 29 69 c43 104 39 211 -9 211
-40 0 -62 -37 -62 -105 0 -92 -46 -175 -96 -175 -41 0 -47 7 -36 45 39 132 39
259 0 252 -27 -5 -46 -41 -70 -133 -41 -156 -24 -146 -183 -110 -155 35 -150
24 -92 250 38 147 44 232 50 746 4 319 7 582 7 585 1 29 211 -5 298 -48z
m-3685 -272 c2 -168 18 -462 36 -653 41 -429 23 -503 -150 -593 -87 -45 -96
-38 -123 93 -25 121 -59 163 -99 123 -20 -20 -1 -158 34 -250 10 -28 3 -35
-37 -35 -51 0 -114 124 -114 224 0 43 -54 70 -82 42 -19 -19 0 -145 35 -236
16 -42 -178 -33 -221 10 -41 41 -41 473 0 567 96 220 194 311 356 331 86 10
103 19 108 57 14 97 -235 43 -368 -79 -101 -93 -107 -80 -46 115 126 409 294
582 568 587 l100 2 3 -305z m2756 0 c-14 -231 -47 -600 -54 -606 -3 -3 -50 2
-105 11 -55 8 -131 11 -168 5 l-68 -11 13 78 c7 43 19 219 26 392 l13 314 132
7 c73 4 153 9 178 11 46 4 46 4 33 -201z m-1593 -729 c229 -70 383 -285 398
-556 10 -180 7 -184 -188 -201 l-163 -14 -21 78 c-11 42 -27 143 -34 224 -14
148 -44 195 -93 146 -22 -22 4 -305 36 -388 15 -40 -37 -45 -224 -22 -117 14
-129 36 -158 303 -13 113 -19 125 -57 120 -47 -7 -51 -143 -9 -303 11 -42 15
-82 9 -88 -13 -12 -219 25 -369 67 l-108 30 13 84 c66 433 497 664 968 520z
m1606 -5 c205 -76 370 -280 409 -504 16 -93 -7 -107 -266 -159 -222 -45 -213
-48 -187 65 36 157 39 274 9 299 -43 36 -54 10 -90 -205 -39 -238 -12 -209
-214 -225 -145 -11 -166 -9 -156 17 30 79 58 374 37 395 -49 49 -76 -1 -100
-194 -31 -244 -18 -230 -201 -230 -187 0 -203 13 -203 160 0 482 469 766 962
581z"/>
<path d="M4437 4965 c-62 -157 -77 -181 -143 -212 -113 -54 -214 -26 -281 76
-37 56 -88 67 -105 23 -25 -66 101 -185 227 -213 151 -34 325 77 373 238 38
130 -23 207 -71 88z"/>
<path d="M3655 4786 c-5 -9 -16 -42 -24 -75 -50 -211 -263 -267 -401 -106 -71
83 -145 82 -116 -1 57 -162 284 -233 449 -140 83 47 187 220 173 289 -7 38
-65 61 -81 33z"/>
<path d="M4010 4386 c-511 -207 -328 -674 202 -516 199 59 282 238 188 405
-79 141 -218 180 -390 111z m242 -134 c74 -74 84 -107 37 -125 -34 -13 -181
81 -209 134 -47 86 83 80 172 -9z m-302 -157 c-17 34 11 31 60 -6 34 -26 36
-33 10 -49 -40 -26 -80 -25 -80 1 0 12 -7 17 -15 12 -8 -5 -16 13 -18 40 -3
46 -1 47 27 13 16 -20 23 -25 16 -11z"/>
<path d="M4353 2661 c-112 -36 -210 -177 -182 -264 20 -63 76 -35 95 49 46
194 507 155 547 -46 13 -66 54 -90 86 -51 119 143 -309 387 -546 312z"/>
</g>
</svg>
