<?xml version="1.0" standalone="no"?>
<!DOCTYPE svg PUBLIC "-//W3C//DTD SVG 20010904//EN"
 "http://www.w3.org/TR/2001/REC-SVG-20010904/DTD/svg10.dtd">
<svg version="1.0" xmlns="http://www.w3.org/2000/svg"
 width="300.000000pt" height="300.000000pt" viewBox="0 0 300.000000 300.000000"
 preserveAspectRatio="xMidYMid meet">
<metadata>
Created by potrace 1.10, written by Peter Selinger 2001-2011
</metadata>
<g transform="translate(0.000000,300.000000) scale(0.050000,-0.050000)"
fill="#000000" stroke="none">
<path d="M4493 5911 c-103 -37 -170 -102 -216 -211 -177 -415 -648 -1459 -656
-1454 -6 3 -181 89 -388 191 -324 158 -393 200 -480 292 -193 202 -491 172
-493 -49 0 -16 -35 -45 -77 -62 -50 -21 -87 -54 -104 -94 -20 -44 -45 -64 -92
-73 -71 -14 -167 -112 -167 -171 0 -23 -29 -51 -75 -73 -45 -22 -87 -63 -105
-102 -23 -50 -43 -64 -87 -65 -69 0 -173 -98 -173 -163 0 -36 -20 -55 -82 -81
-56 -24 -88 -53 -104 -95 -17 -46 -39 -64 -88 -73 -72 -14 -166 -108 -166
-168 0 -23 -29 -51 -75 -73 -51 -26 -88 -63 -115 -121 -22 -47 -58 -91 -80
-98 -64 -20 -127 -88 -141 -151 -9 -41 -32 -66 -78 -85 -162 -68 -179 -286
-35 -438 53 -56 54 -57 14 -87 -43 -32 -33 -47 70 -107 24 -15 17 -29 -39 -76
l-69 -58 159 -117 c87 -65 682 -506 1321 -980 1494 -1110 1378 -1030 1493
-1032 164 -3 190 19 790 671 315 342 758 823 984 1068 519 563 478 482 478
941 0 544 -1 547 -357 723 -115 58 -213 107 -216 110 -3 3 70 198 163 433 248
627 503 1358 479 1374 -11 7 -26 39 -34 71 -71 291 -820 603 -1159 483z m468
-183 c386 -115 630 -371 503 -528 -122 -151 -704 -2 -949 243 -231 231 42 405
446 285z m-661 -531 c-455 -1079 -651 -1521 -656 -1487 -12 91 705 1789 742
1752 12 -12 -20 -109 -86 -265z m522 -51 c125 -45 158 73 -286 -1026 -203
-500 -375 -927 -383 -948 -13 -34 -19 -31 -51 30 -58 109 -164 157 -347 158
-85 0 -155 5 -155 10 0 6 33 76 72 155 74 146 461 1044 662 1535 61 149 114
276 118 283 5 7 67 -26 139 -74 72 -48 176 -104 231 -123z m598 -89 c0 -12
-153 -438 -279 -777 -80 -215 -308 -775 -373 -920 l-51 -110 -95 -1 c-67 -1
-143 -24 -249 -74 -84 -40 -153 -70 -153 -67 0 4 22 57 49 119 40 89 670 1645
731 1803 15 39 420 66 420 27z m-2865 -302 c-4 -14 -42 -28 -84 -31 -66 -6
-71 -10 -40 -32 45 -33 21 -72 -42 -72 -62 0 -65 55 -8 116 45 49 189 65 174
19z m-275 -232 c0 -49 -71 -111 -109 -96 -42 16 -39 45 9 93 50 50 100 52 100
3z m409 -5 c39 -23 71 -54 71 -68 0 -31 62 -58 78 -34 10 16 822 -362 822
-382 0 -4 -23 -62 -50 -130 -59 -146 -61 -164 -15 -165 30 -1 29 -4 -5 -18
-30 -12 -49 -55 -76 -178 l-36 -161 -190 -103 c-228 -123 -231 -144 -9 -58
200 77 190 87 153 -164 -17 -114 -68 -486 -113 -827 -45 -341 -93 -685 -107
-765 -14 -80 -19 -143 -12 -140 7 3 152 171 322 374 235 281 323 372 368 383
33 8 128 27 210 41 l150 27 -166 10 -166 10 416 485 c357 417 506 619 551 749
10 29 475 -189 528 -247 21 -23 28 -66 23 -143 l-6 -111 -420 -456 c-1700
-1852 -1567 -1724 -1713 -1645 -153 81 -2386 1768 -2391 1805 -13 98 -30 136
-90 205 l-63 72 78 67 c112 96 167 59 188 -129 9 -75 18 -92 51 -92 80 0 55
194 -40 307 l-50 58 91 74 90 74 40 -91 c24 -54 35 -110 28 -138 -12 -49 33
-88 73 -63 37 23 18 178 -31 259 -63 102 -65 92 28 167 l80 64 32 -62 c17 -34
29 -91 25 -126 -5 -52 1 -64 39 -69 68 -10 69 138 3 253 l-39 68 75 66 c42 37
82 68 89 68 25 2 82 -177 69 -212 -14 -35 17 -66 65 -67 46 0 19 208 -36 283
l-46 63 77 66 c43 37 84 67 91 67 23 1 62 -139 51 -181 -11 -39 56 -95 82 -68
27 26 8 170 -32 247 l-41 79 77 62 c43 34 83 62 90 62 25 0 72 -148 61 -192
-14 -58 61 -112 82 -58 21 56 -6 204 -49 264 l-40 57 79 67 c95 79 123 65 125
-62 1 -47 11 -93 22 -101 71 -52 105 45 59 169 -17 47 -36 100 -41 116 -5 18
24 57 71 96 l80 65 32 -75 c17 -42 27 -100 21 -129 -10 -51 14 -77 70 -77 36
0 19 188 -23 257 -71 116 -30 152 90 81z m-624 -176 c14 -51 -85 -148 -132
-130 -47 18 -41 62 16 119 59 59 103 63 116 11z m-225 -225 c0 -38 -63 -97
-103 -97 -46 0 -48 35 -4 83 37 41 107 50 107 14z m-220 -191 c0 -46 -79 -126
-123 -126 -50 0 -48 69 3 120 49 49 120 53 120 6z m-220 -210 c0 -33 -81 -116
-113 -116 -40 0 -33 54 13 100 44 44 100 53 100 16z m-220 -206 c0 -32 -94
-110 -133 -110 -39 0 -34 68 8 104 66 58 125 61 125 6z m-220 -208 c0 -22
-116 -122 -141 -122 -23 0 -2 60 37 105 32 37 104 48 104 17z m3004 -72 c84
-63 129 -178 100 -258 -35 -95 -31 -98 51 -42 167 111 497 264 520 241 11 -11
-10 -37 -355 -441 -148 -174 -313 -368 -366 -433 -144 -176 -273 -195 -432
-61 l-64 54 62 470 c35 259 67 482 72 497 14 45 344 24 412 -27z m-3279 -194
c-35 -35 -69 -59 -75 -53 -18 18 71 117 106 117 25 0 16 -17 -31 -64z m89
-294 c51 -76 59 -110 21 -97 -14 5 -25 21 -25 37 0 15 -25 45 -55 65 -62 41
-73 79 -21 69 19 -3 55 -37 80 -74z m-293 -90 c-50 -50 -80 -22 -81 74 l0 57
62 -44 62 -44 -43 -43z m4951 82 c-3 -59 -1872 -2096 -1968 -2144 -113 -56
-49 -98 -1604 1060 -214 160 -550 408 -745 552 -195 144 -351 269 -345 278 6
9 -19 40 -54 67 -60 48 -67 105 -7 62 15 -10 210 -156 434 -324 1329 -997
2112 -1567 2175 -1585 164 -45 141 -66 1166 1050 520 566 947 1029 948 1030 1
0 1 -21 0 -46z m8 -209 c0 -19 -34 -71 -75 -115 -42 -44 -228 -246 -415 -450
-1076 -1171 -1323 -1438 -1401 -1515 -131 -128 -175 -121 -442 73 -765 556
-2337 1740 -2337 1759 0 13 -26 44 -58 70 -32 26 -50 52 -39 58 10 7 190 -115
398 -272 470 -352 2054 -1527 2149 -1594 92 -64 254 -69 321 -9 41 36 1463
1576 1749 1893 128 142 150 157 150 102z m-22 -200 c-16 -19 -189 -210 -387
-425 -197 -214 -408 -444 -469 -510 -60 -66 -164 -178 -231 -250 -67 -71 -224
-242 -350 -380 -440 -481 -523 -560 -593 -560 -67 0 -56 -8 -1708 1219 -434
323 -842 624 -904 669 -112 80 -139 112 -94 112 20 0 746 -533 2145 -1574 452
-337 514 -369 639 -333 57 16 579 560 1208 1257 50 55 137 150 193 210 57 61
205 220 330 355 203 218 298 309 221 210z m-2002 -341 c-73 -243 -79 -255 -66
-144 24 205 73 382 100 360 20 -17 14 -60 -34 -216z"/>
<path d="M4821 5614 c-120 -61 -88 -164 79 -249 168 -86 308 -42 296 92 -9
106 -265 213 -375 157z"/>
<path d="M2873 3409 c-245 -253 -256 -269 -223 -301 37 -38 -3 -73 447 396 93
97 106 118 84 145 -37 44 -26 53 -308 -240z"/>
<path d="M2190 3195 c-98 -102 -298 -307 -444 -456 -272 -278 -286 -298 -239
-337 21 -17 64 17 203 163 97 102 302 313 456 470 235 240 275 290 254 315
-37 45 -40 44 -230 -155z"/>
<path d="M2095 2555 c-214 -227 -229 -248 -200 -280 17 -19 32 -33 33 -29 1 3
108 114 238 246 227 232 234 242 198 274 -36 33 -47 24 -269 -211z"/>
<path d="M3923 2643 c-118 -229 -126 -280 -19 -118 103 155 139 232 132 281
-4 32 -37 -15 -113 -163z"/>
</g>
</svg>
