<?xml version="1.0" standalone="no"?>
<!DOCTYPE svg PUBLIC "-//W3C//DTD SVG 20010904//EN"
 "http://www.w3.org/TR/2001/REC-SVG-20010904/DTD/svg10.dtd">
<svg version="1.0" xmlns="http://www.w3.org/2000/svg"
 width="300.000000pt" height="300.000000pt" viewBox="0 0 300.000000 300.000000"
 preserveAspectRatio="xMidYMid meet">
<metadata>
Created by potrace 1.10, written by Peter Selinger 2001-2011
</metadata>
<g transform="translate(0.000000,300.000000) scale(0.100000,-0.100000)"
fill="#000000" stroke="none">
<path d="M180 2522 c-44 -22 -80 -75 -80 -119 0 -46 27 -101 57 -117 l25 -13
-29 -18 c-75 -49 -124 -143 -131 -251 -10 -155 72 -321 213 -432 56 -44 235
-142 260 -142 7 0 10 -11 7 -28 -12 -85 136 -137 236 -83 21 11 23 11 18 -6
-10 -32 13 -136 46 -203 24 -49 58 -91 138 -171 118 -117 120 -122 58 -174
-18 -15 -61 -41 -95 -56 -63 -28 -82 -51 -97 -112 -5 -22 -1 -33 20 -54 24
-24 31 -25 90 -20 112 9 210 70 289 180 l21 28 145 -11 c80 -7 186 -10 235 -7
155 8 547 36 602 43 35 4 52 3 52 -5 0 -6 15 -28 34 -49 33 -36 34 -40 24 -78
-21 -76 30 -128 87 -90 13 8 35 40 50 70 22 45 30 53 43 46 10 -5 25 -11 35
-14 11 -4 17 -16 17 -38 0 -156 102 -162 179 -11 45 90 61 169 61 301 -1 139
-20 256 -50 310 l-22 40 57 58 c77 78 124 143 174 237 61 117 56 199 -16 236
-40 21 -88 13 -121 -19 -31 -29 -35 -43 -47 -149 -3 -30 -17 -75 -30 -101 -22
-44 -76 -100 -95 -100 -5 0 -28 13 -52 29 -84 56 -122 60 -393 46 -82 -4 -189
-5 -237 -1 l-87 8 -18 36 c-13 27 -42 53 -103 93 -82 54 -87 59 -127 140 -38
74 -44 95 -48 169 -12 187 -23 238 -80 349 -33 66 -115 151 -175 181 -158 81
-459 -28 -540 -195 -28 -58 -36 -164 -17 -235 14 -50 14 -58 -4 -105 -11 -29
-31 -63 -45 -76 l-26 -24 -33 38 c-18 21 -59 97 -90 168 -81 183 -127 240
-217 268 -38 12 -38 13 -23 41 19 37 19 123 0 159 -14 27 -58 51 -94 51 -9 0
-32 -8 -51 -18z m105 -37 c20 -19 25 -34 25 -77 0 -66 -18 -94 -71 -108 -48
-13 -83 4 -99 46 -24 61 -8 113 43 144 43 27 73 25 102 -5z m1022 -76 c133
-64 222 -237 239 -463 8 -119 21 -168 66 -243 54 -91 83 -121 145 -148 63 -28
85 -60 86 -123 1 -94 -75 -152 -199 -152 -183 1 -233 92 -234 426 0 189 -12
248 -57 284 -23 18 -55 29 -40 13 4 -3 2 -12 -4 -20 -9 -11 -7 -13 12 -11 20
3 28 -6 48 -46 24 -47 25 -57 25 -260 l1 -211 33 -67 c40 -82 85 -120 165
-143 93 -26 164 -8 235 59 42 39 62 76 62 116 0 31 1 31 33 24 17 -4 106 -6
197 -4 342 9 369 7 433 -24 31 -16 57 -35 57 -42 0 -22 37 -16 80 12 52 35 96
124 110 220 12 89 23 120 49 133 50 27 95 3 107 -58 5 -25 -1 -47 -29 -104
-47 -93 -188 -282 -225 -301 l-29 -15 28 -80 c37 -104 48 -192 43 -326 -6
-177 -43 -304 -98 -340 -46 -31 -66 -3 -66 96 l0 57 -36 6 c-40 8 -105 63
-139 116 -28 45 -55 125 -55 164 -1 23 -3 27 -9 16 -11 -19 3 -98 24 -139 8
-17 15 -32 15 -36 0 -3 -33 -5 -72 -4 -40 0 -122 -4 -183 -10 -180 -17 -242
-20 -517 -27 -291 -7 -344 -2 -443 44 -106 50 -259 218 -316 347 -31 70 -51
181 -43 241 6 51 7 52 45 62 22 5 41 7 44 3 2 -4 3 -50 2 -102 -1 -105 10
-138 63 -182 45 -38 87 -43 149 -16 61 26 81 57 81 126 0 65 -36 138 -94 191
-26 24 -46 45 -44 46 58 36 88 58 88 66 0 18 22 10 27 -10 7 -26 23 -26 23 -1
0 21 -44 61 -68 61 -12 0 -12 -3 -1 -16 11 -14 9 -19 -11 -35 -52 -42 -166
-91 -250 -110 -129 -28 -298 -27 -369 1 -142 56 -296 179 -370 295 -46 72 -74
173 -69 244 5 74 55 179 105 220 67 55 179 50 249 -11 49 -44 73 -83 128 -218
53 -129 125 -230 188 -263 52 -26 150 -28 206 -3 23 10 42 23 42 28 0 12 -7
10 -43 -9 -37 -19 -87 -27 -87 -13 0 5 5 12 10 15 22 13 10 97 -27 188 -41
103 -49 198 -24 271 41 119 257 245 396 230 28 -3 78 -19 112 -35z m-477 -549
c29 -102 -7 -141 -99 -109 l-32 11 41 44 c28 30 42 56 46 85 6 38 8 40 21 23
7 -10 18 -34 23 -54z m257 -407 c59 -58 83 -106 83 -168 0 -66 -21 -100 -74
-120 -72 -28 -131 -4 -167 66 -18 36 -20 53 -15 137 4 87 7 97 26 104 18 7 24
2 41 -36 10 -24 20 -60 21 -80 2 -20 6 -36 11 -36 14 0 7 60 -13 112 -11 29
-20 54 -20 55 0 2 32 10 47 12 6 0 33 -20 60 -46z m-297 -36 c0 -43 -83 -97
-151 -97 -56 0 -109 49 -109 101 0 5 55 10 123 12 67 1 125 4 130 5 4 1 7 -8
7 -21z m350 -628 l60 -32 -23 -39 c-51 -92 -162 -159 -266 -162 l-66 -1 -3 31
c-4 41 27 78 80 93 56 17 103 53 130 101 13 22 24 40 25 40 2 0 30 -14 63 -31z
m1289 -55 l33 -46 -17 -45 c-10 -24 -27 -56 -39 -69 -20 -23 -22 -24 -43 -9
-28 19 -29 42 -5 91 13 29 14 38 4 42 -19 6 -72 52 -72 62 0 5 19 11 43 13 23
2 47 4 52 5 6 1 25 -19 44 -44z"/>
<path d="M1030 2160 c0 -5 5 -10 10 -10 6 0 10 5 10 10 0 6 -4 10 -10 10 -5 0
-10 -4 -10 -10z"/>
<path d="M1075 2140 c-3 -5 -1 -10 4 -10 6 0 11 5 11 10 0 6 -2 10 -4 10 -3 0
-8 -4 -11 -10z"/>
<path d="M1114 1945 c-20 -31 -32 -115 -15 -115 6 0 11 15 11 34 0 86 48 118
76 51 7 -19 14 -48 14 -64 0 -16 5 -33 11 -37 9 -5 10 8 7 45 -9 91 -68 141
-104 86z"/>
<path d="M896 1934 c-10 -25 -7 -112 3 -119 6 -3 11 19 13 52 3 50 6 58 23 58
15 0 24 -12 36 -49 9 -27 19 -44 22 -39 9 14 -9 72 -29 94 -21 23 -60 25 -68
3z"/>
<path d="M2185 1130 c4 -6 11 -8 16 -5 14 9 11 15 -7 15 -8 0 -12 -5 -9 -10z"/>
<path d="M1550 1073 c0 -15 30 -52 53 -65 12 -7 71 -15 132 -18 l110 -5 3 -33
c4 -41 -37 -85 -94 -101 -85 -24 -251 -4 -295 35 -8 8 -22 14 -30 14 -9 -1 -4
-10 13 -25 37 -32 161 -59 244 -52 71 5 149 38 165 70 17 31 16 96 -1 107 -8
5 -61 10 -117 10 l-103 0 -40 36 c-22 20 -40 32 -40 27z"/>
</g>
</svg>
