<?xml version="1.0" standalone="no"?>
<!DOCTYPE svg PUBLIC "-//W3C//DTD SVG 20010904//EN"
 "http://www.w3.org/TR/2001/REC-SVG-20010904/DTD/svg10.dtd">
<svg version="1.0" xmlns="http://www.w3.org/2000/svg"
 width="300.000000pt" height="300.000000pt" viewBox="0 0 300.000000 300.000000"
 preserveAspectRatio="xMidYMid meet">
<metadata>
Created by potrace 1.10, written by Peter Selinger 2001-2011
</metadata>
<g transform="translate(0.000000,300.000000) scale(0.100000,-0.100000)"
fill="#000000" stroke="none">
<path d="M1897 2610 c-199 -35 -347 -247 -347 -495 0 -140 37 -233 121 -309
65 -59 131 -79 238 -74 170 8 295 118 357 313 44 140 31 313 -31 420 -67 115
-196 170 -338 145z"/>
<path d="M934 2590 c-155 -50 -246 -210 -229 -400 22 -257 194 -460 389 -460
155 0 276 103 322 275 19 68 17 214 -2 288 -33 129 -112 235 -210 283 -74 36
-185 42 -270 14z"/>
<path d="M240 2007 c-123 -29 -194 -96 -225 -213 -55 -211 57 -435 268 -539
69 -34 89 -39 165 -43 108 -5 178 18 249 83 186 166 145 479 -82 629 -116 77
-261 109 -375 83z"/>
<path d="M2540 2005 c-130 -36 -250 -125 -310 -229 -98 -172 -74 -396 55 -514
64 -58 128 -82 221 -82 134 0 248 53 352 164 131 141 174 316 114 473 -30 80
-67 119 -146 158 -87 43 -196 55 -286 30z"/>
<path d="M1404 1579 c-185 -17 -361 -108 -477 -249 -53 -63 -115 -192 -132
-275 -19 -89 -19 -242 -1 -337 32 -165 94 -267 187 -307 76 -33 142 -25 299
35 113 43 133 48 210 48 79 0 95 -4 223 -52 199 -76 272 -69 372 33 86 89 125
208 125 382 0 462 -337 763 -806 722z"/>
</g>
</svg>
