<?xml version="1.0" standalone="no"?>
<!DOCTYPE svg PUBLIC "-//W3C//DTD SVG 20010904//EN"
 "http://www.w3.org/TR/2001/REC-SVG-20010904/DTD/svg10.dtd">
<svg version="1.0" xmlns="http://www.w3.org/2000/svg"
 width="500.000000pt" height="500.000000pt" viewBox="0 0 500.000000 500.000000"
 preserveAspectRatio="xMidYMid meet">
<metadata>
Created by potrace 1.16, written by Peter Selinger 2001-2019
</metadata>
<g transform="translate(0.000000,500.000000) scale(0.100000,-0.100000)"
fill="#000000" stroke="none">
<path d="M2731 4394 c-116 -31 -213 -115 -253 -219 -31 -78 -31 -142 -4 -311
14 -87 32 -253 41 -367 23 -311 51 -411 144 -506 119 -122 447 -223 766 -237
212 -10 379 29 449 102 26 28 27 32 21 104 -16 191 -65 417 -120 562 -46 119
-54 134 -169 298 -202 292 -375 431 -676 543 -126 47 -136 49 -199 31z"/>
<path d="M1989 3121 c-48 -49 -34 -114 31 -141 55 -23 120 26 120 90 0 33 -53
80 -90 80 -22 0 -41 -9 -61 -29z"/>
<path d="M2359 2800 c-151 -27 -184 -108 -93 -233 41 -56 125 -115 177 -123
l37 -7 0 -100 c0 -134 -12 -170 -80 -238 -74 -75 -154 -103 -274 -97 -68 3
-91 9 -146 39 -82 43 -173 132 -238 232 -28 42 -52 82 -54 89 -4 12 -28 3 -28
-12 0 -5 27 -49 60 -99 74 -111 162 -191 260 -239 72 -35 79 -37 180 -37 87 0
113 4 153 22 72 33 124 79 157 137 17 28 30 46 30 40 0 -26 65 -105 113 -137
78 -53 142 -70 245 -65 125 4 198 41 312 157 77 78 150 180 154 213 3 34 -22
14 -59 -46 -87 -143 -199 -240 -319 -278 -86 -28 -202 -21 -272 15 -67 34
-130 106 -149 170 -19 63 -21 226 -2 231 109 32 190 94 233 181 43 90 21 140
-76 174 -43 15 -259 23 -321 11z"/>
</g>
</svg>
