<?xml version="1.0" standalone="no"?>
<!DOCTYPE svg PUBLIC "-//W3C//DTD SVG 20010904//EN"
 "http://www.w3.org/TR/2001/REC-SVG-20010904/DTD/svg10.dtd">
<svg version="1.0" xmlns="http://www.w3.org/2000/svg"
 width="900.000000pt" height="900.000000pt" viewBox="0 0 900.000000 900.000000"
 preserveAspectRatio="xMidYMid meet">
<metadata>
Created by potrace 1.10, written by Peter Selinger 2001-2011
</metadata>
<g transform="translate(0.000000,900.000000) scale(0.100000,-0.100000)"
fill="#000000" stroke="none">
<path d="M3770 7659 c-41 -4 -129 -10 -195 -13 -129 -7 -377 -31 -490 -47 -38
-6 -115 -14 -171 -19 -55 -5 -113 -14 -128 -20 -15 -5 -48 -10 -74 -10 -26 0
-74 -7 -107 -15 -33 -8 -78 -14 -99 -15 -22 0 -62 -6 -90 -14 -28 -8 -80 -20
-116 -26 -160 -27 -254 -46 -325 -65 -27 -7 -79 -21 -115 -30 -93 -23 -170
-45 -205 -57 -16 -5 -50 -14 -75 -19 -24 -5 -49 -14 -54 -19 -6 -6 -21 -10
-34 -10 -13 0 -38 -6 -55 -14 -18 -8 -43 -16 -57 -19 -33 -6 -88 -26 -123 -43
-16 -8 -34 -14 -40 -14 -15 0 -279 -110 -317 -132 -8 -4 -22 -11 -30 -14 -34
-14 -157 -76 -185 -94 -16 -10 -52 -31 -80 -45 -77 -41 -262 -184 -339 -261
-80 -80 -165 -190 -182 -234 -3 -8 -12 -27 -20 -42 -8 -14 -14 -35 -14 -45 0
-10 -5 -24 -12 -31 -11 -11 -17 -195 -10 -322 2 -30 2 -329 0 -665 -3 -618 -1
-647 33 -705 5 -8 12 -22 15 -30 39 -102 181 -264 334 -379 127 -96 213 -149
355 -219 28 -13 76 -37 108 -53 31 -16 63 -29 71 -29 7 0 19 -7 26 -15 7 -8
21 -15 30 -15 10 0 31 -6 47 -14 49 -25 219 -90 278 -106 39 -11 91 -29 133
-46 18 -8 41 -14 52 -14 11 0 34 -6 52 -14 18 -7 60 -21 93 -30 33 -10 81 -24
106 -32 26 -7 59 -14 73 -14 15 0 35 -4 45 -10 10 -5 43 -14 72 -19 51 -9 77
-15 189 -43 25 -6 65 -14 90 -18 25 -4 72 -13 105 -20 164 -32 336 -60 425
-70 90 -9 232 -29 310 -42 36 -6 140 -13 233 -15 118 -3 167 -8 166 -16 0 -7
-22 -29 -50 -50 -27 -20 -60 -55 -74 -77 l-26 -41 1 -830 c0 -802 1 -832 20
-868 27 -53 99 -121 146 -137 55 -19 1962 -21 2026 -1 47 14 148 104 148 133
0 11 7 28 15 38 13 17 15 133 15 827 0 785 -1 808 -20 852 -24 53 -103 137
-129 137 -7 0 -11 8 -9 18 3 15 15 17 121 13 74 -2 152 3 214 12 119 19 250
37 358 47 44 5 96 13 115 19 19 6 51 11 70 11 19 0 67 6 105 14 39 8 108 22
155 31 47 9 103 20 125 26 22 6 60 14 85 18 50 9 118 25 196 47 28 8 59 14 70
14 10 0 39 6 64 14 25 8 72 22 105 31 137 39 412 129 505 165 30 12 64 24 75
27 11 4 29 12 40 20 11 7 27 13 35 13 24 0 375 178 449 228 35 23 65 42 68 42
8 0 127 93 172 135 114 106 215 227 237 285 3 8 10 23 15 33 43 79 42 72 43
907 0 645 -2 802 -13 830 -50 129 -98 200 -214 319 -77 80 -275 233 -348 270
-24 12 -66 36 -94 52 -78 45 -220 112 -370 174 -49 20 -94 41 -100 46 -5 5
-19 9 -31 9 -12 0 -35 6 -51 14 -36 18 -88 36 -133 46 -19 4 -50 13 -67 19
-18 6 -48 16 -65 22 -18 6 -49 15 -68 19 -19 4 -48 13 -65 18 -36 13 -117 35
-200 56 -33 8 -87 21 -120 29 -60 15 -151 35 -295 63 -41 8 -104 22 -140 30
-36 8 -81 14 -100 14 -19 0 -62 7 -95 15 -33 8 -81 14 -107 15 -26 0 -59 5
-74 10 -15 6 -73 15 -128 20 -56 5 -132 13 -171 19 -108 16 -368 40 -490 46
-60 3 -150 10 -200 15 -107 10 -1337 10 -1445 -1z m1510 -157 c102 -7 228 -17
280 -23 52 -6 145 -15 205 -19 157 -12 299 -29 376 -46 37 -8 89 -14 115 -14
27 0 74 -7 104 -15 30 -8 71 -15 90 -15 19 0 69 -7 110 -16 41 -8 109 -22 150
-31 41 -8 93 -20 115 -26 22 -5 60 -14 85 -18 54 -9 128 -26 195 -44 214 -58
272 -75 315 -90 19 -7 60 -20 90 -29 71 -21 172 -53 202 -65 12 -5 43 -17 68
-26 25 -10 60 -24 77 -32 18 -7 49 -20 68 -28 113 -47 107 -45 231 -110 335
-177 541 -359 631 -555 28 -62 56 -184 51 -217 -20 -112 -60 -205 -133 -305
-25 -34 -45 -66 -45 -70 0 -19 -30 -5 -86 38 -60 47 -158 115 -184 127 -8 4
-28 16 -45 27 -16 10 -66 38 -110 60 -44 23 -87 45 -95 49 -8 4 -31 15 -50 24
-19 8 -65 29 -103 46 -37 17 -71 31 -77 31 -10 0 -70 25 -112 46 -14 8 -34 14
-45 14 -10 0 -27 7 -37 15 -11 8 -30 15 -43 15 -12 0 -37 6 -55 14 -42 17 -94
35 -133 46 -16 5 -43 13 -60 18 -29 10 -79 25 -197 57 -87 23 -169 43 -253 60
-44 9 -103 23 -131 31 -28 8 -62 14 -77 14 -14 0 -38 5 -54 11 -15 6 -55 15
-88 19 -33 4 -86 13 -117 19 -144 28 -178 33 -253 41 -44 5 -100 13 -125 19
-25 6 -68 11 -95 11 -28 0 -82 7 -120 15 -39 8 -101 15 -140 15 -38 0 -97 5
-130 10 -33 6 -139 15 -235 20 -96 6 -231 14 -300 20 -162 12 -1067 12 -1235
0 -71 -6 -211 -15 -310 -20 -99 -6 -200 -14 -225 -20 -25 -5 -79 -9 -121 -10
-42 0 -101 -5 -130 -11 -30 -6 -92 -14 -139 -19 -82 -8 -146 -16 -295 -40 -38
-7 -99 -15 -135 -20 -36 -5 -78 -13 -93 -19 -16 -6 -45 -11 -66 -11 -21 0 -58
-7 -81 -15 -23 -8 -56 -15 -72 -15 -17 0 -51 -6 -77 -14 -67 -21 -182 -46
-209 -46 -13 0 -32 -5 -43 -11 -11 -6 -41 -14 -67 -19 -26 -4 -60 -13 -77 -18
-16 -6 -57 -18 -90 -27 -33 -9 -73 -21 -90 -27 -16 -5 -48 -14 -70 -19 -22 -6
-44 -14 -49 -20 -6 -5 -19 -9 -30 -9 -12 0 -34 -7 -50 -15 -15 -8 -38 -15 -50
-15 -12 0 -31 -7 -42 -15 -10 -8 -29 -15 -41 -15 -12 0 -24 -4 -28 -10 -3 -5
-20 -14 -38 -19 -53 -16 -118 -41 -171 -65 -28 -13 -58 -26 -66 -30 -8 -3 -22
-10 -30 -15 -8 -5 -50 -25 -92 -46 -43 -20 -80 -41 -83 -46 -4 -5 -13 -9 -21
-9 -8 0 -33 -12 -57 -27 -59 -39 -80 -51 -97 -59 -8 -4 -52 -36 -98 -71 -45
-35 -87 -63 -94 -63 -17 0 -52 42 -100 122 -77 129 -82 146 -82 282 0 117 1
123 33 186 18 36 39 72 47 81 8 8 14 21 14 28 0 14 225 241 239 241 5 0 16 6
23 13 16 16 99 70 188 124 61 36 285 149 358 179 18 7 47 20 65 27 30 14 62
26 155 61 20 8 60 22 87 30 242 77 277 87 403 122 157 43 228 60 302 73 25 4
63 13 85 18 22 6 74 18 115 26 41 9 109 23 150 31 41 9 91 16 110 16 19 0 60
7 90 15 30 8 78 15 105 15 28 0 77 7 108 15 32 8 79 15 105 15 26 1 83 7 127
15 44 8 105 15 137 15 31 0 107 6 170 14 62 8 217 20 343 26 127 7 232 14 235
17 9 9 1140 -4 1320 -15z m-215 -1012 c72 -6 209 -14 305 -19 96 -6 189 -13
205 -16 17 -3 86 -10 155 -15 120 -8 204 -18 355 -42 39 -5 102 -14 140 -18
88 -10 197 -27 255 -41 25 -6 70 -15 100 -19 30 -4 82 -13 115 -20 152 -30
213 -43 250 -52 22 -6 58 -15 80 -19 60 -12 182 -44 280 -74 22 -7 67 -21 100
-30 33 -9 74 -21 90 -27 17 -5 44 -13 60 -18 17 -5 55 -18 85 -30 30 -12 69
-25 85 -30 17 -4 44 -13 60 -20 63 -26 144 -62 217 -95 31 -14 67 -30 80 -35
13 -5 30 -14 38 -19 8 -5 22 -12 30 -15 8 -4 38 -20 65 -36 28 -17 61 -36 75
-42 14 -7 41 -25 61 -40 20 -15 41 -28 46 -28 5 0 23 -13 41 -30 18 -16 36
-30 40 -30 4 0 27 -19 52 -41 25 -23 56 -45 69 -50 49 -19 120 27 106 70 -3
11 10 31 41 61 25 25 64 71 86 103 23 31 46 57 52 57 31 0 36 -25 36 -188 l0
-163 -22 7 c-13 3 -30 13 -39 20 -8 8 -28 14 -42 14 -15 0 -36 9 -47 20 -11
11 -23 20 -26 20 -3 0 -25 -19 -49 -42 -24 -24 -65 -61 -90 -83 -26 -22 -55
-47 -64 -56 -27 -26 -98 -79 -106 -79 -4 0 -24 -13 -44 -28 -20 -16 -43 -32
-51 -36 -15 -7 -21 -11 -95 -56 -22 -14 -58 -33 -80 -44 -22 -10 -47 -22 -55
-27 -8 -5 -25 -14 -38 -19 -13 -5 -49 -22 -80 -36 -31 -14 -73 -33 -92 -41
-138 -59 -152 -64 -485 -174 -61 -21 -131 -40 -170 -49 -22 -4 -53 -12 -70
-18 -40 -14 -119 -33 -178 -43 -26 -4 -62 -12 -80 -18 -35 -10 -124 -29 -202
-41 -27 -4 -63 -13 -78 -19 -16 -6 -45 -11 -64 -11 -20 0 -62 -6 -92 -14 -75
-19 -179 -36 -276 -46 -44 -5 -104 -13 -134 -19 -29 -6 -78 -11 -108 -11 -30
0 -84 -6 -121 -14 -37 -8 -121 -17 -187 -20 -66 -4 -147 -11 -180 -16 -33 -5
-104 -10 -158 -10 -93 0 -98 -1 -106 -24 -12 -30 -39 -40 -60 -23 -52 42 -46
42 -661 42 -615 0 -609 0 -661 -42 -21 -17 -48 -7 -60 23 -8 23 -13 24 -108
24 -55 0 -133 5 -173 10 -40 6 -127 14 -193 19 -66 5 -149 14 -185 20 -111 17
-232 33 -310 41 -103 10 -224 29 -292 46 -32 8 -71 14 -87 14 -15 0 -48 7 -71
15 -23 8 -57 15 -76 15 -18 0 -45 5 -60 10 -14 6 -54 15 -88 20 -33 5 -81 15
-106 21 -25 6 -72 18 -105 26 -80 20 -163 42 -200 55 -16 5 -46 14 -65 18 -19
4 -48 13 -65 18 -16 6 -57 18 -90 28 -33 9 -69 21 -80 25 -29 12 -107 39 -130
46 -11 3 -34 11 -52 19 -17 8 -36 14 -41 14 -6 0 -23 6 -39 14 -15 8 -44 21
-63 29 -19 9 -64 29 -100 45 -36 16 -72 33 -80 36 -8 3 -22 10 -30 15 -8 5
-33 17 -55 27 -62 30 -187 104 -226 135 -20 16 -40 29 -44 29 -13 0 -202 160
-283 238 -31 31 -35 32 -51 18 -10 -9 -23 -16 -29 -16 -6 0 -27 -8 -47 -17
-48 -23 -57 -11 -56 73 1 38 1 86 1 106 0 42 26 91 45 86 7 -2 40 -33 72 -69
41 -45 62 -78 67 -102 12 -62 93 -102 126 -62 7 8 19 15 26 15 8 0 14 4 14 8
0 14 222 171 242 172 4 0 24 12 45 26 21 14 61 37 88 50 28 14 57 29 65 34 8
5 47 23 85 40 100 44 126 56 160 71 52 22 99 40 130 49 17 4 55 18 85 30 30
11 84 30 120 41 36 11 79 25 95 30 17 6 46 15 65 19 19 4 49 13 65 18 41 14
135 40 165 46 14 3 45 10 70 16 25 7 70 18 100 25 30 7 78 19 105 26 28 6 75
15 105 19 30 4 82 13 115 19 276 55 370 71 411 71 22 1 68 7 104 15 36 8 88
15 115 15 28 0 79 7 115 15 36 8 97 15 135 15 39 0 102 5 140 11 39 5 151 14
250 20 99 5 227 14 285 18 153 11 1013 12 1165 1z m-4882 -1035 c15 -14 27
-32 27 -39 0 -18 114 -133 186 -188 81 -61 260 -180 294 -193 8 -4 22 -10 30
-15 23 -13 158 -79 225 -110 111 -50 136 -60 150 -60 8 0 31 -7 52 -16 88 -39
110 -47 233 -86 36 -11 81 -26 100 -33 19 -7 62 -20 95 -29 33 -10 80 -24 105
-32 25 -8 55 -14 68 -14 13 0 33 -5 45 -12 12 -6 40 -15 62 -19 49 -8 128 -27
175 -42 19 -6 55 -14 80 -17 25 -4 65 -12 90 -18 62 -15 164 -34 230 -43 94
-12 192 -30 257 -45 34 -8 83 -14 110 -14 26 -1 77 -7 113 -15 36 -8 88 -15
115 -15 28 0 68 -5 90 -10 22 -5 110 -15 195 -20 193 -14 287 -24 295 -31 3
-4 1 -19 -5 -35 -7 -18 -10 -164 -9 -432 0 -222 -1 -405 -3 -407 -2 -2 -51 3
-108 11 -58 8 -154 19 -215 24 -147 11 -296 28 -370 42 -33 6 -94 14 -135 18
-41 4 -104 13 -140 19 -36 7 -108 19 -160 27 -52 9 -120 22 -151 30 -30 8 -68
14 -83 14 -15 0 -37 5 -48 11 -11 6 -44 15 -72 20 -85 14 -159 30 -191 41 -16
5 -46 14 -65 18 -65 16 -125 32 -170 45 -126 36 -167 48 -190 58 -14 5 -41 13
-60 17 -19 5 -60 18 -90 30 -30 12 -66 25 -80 30 -14 5 -50 18 -80 30 -30 12
-65 24 -77 27 -12 3 -28 11 -34 19 -6 8 -17 14 -24 14 -21 0 -193 79 -265 122
-19 11 -53 31 -75 42 -163 88 -330 227 -429 356 -38 49 -51 71 -89 145 -5 10
-18 66 -27 122 -15 85 -17 141 -13 306 4 127 1 228 -6 274 -10 67 -8 103 8
103 3 0 19 -11 34 -25z m8658 -281 c-2 -159 -5 -292 -7 -295 -2 -3 -8 -39 -14
-80 -13 -89 -30 -132 -89 -224 -126 -199 -433 -412 -836 -580 -19 -8 -50 -21
-67 -29 -18 -8 -42 -16 -53 -19 -11 -3 -45 -15 -75 -27 -30 -11 -84 -30 -120
-41 -36 -12 -80 -27 -98 -35 -18 -8 -43 -14 -55 -14 -12 -1 -33 -7 -47 -15
-14 -8 -35 -14 -47 -15 -12 0 -37 -6 -55 -14 -37 -15 -102 -33 -163 -45 -22
-4 -56 -12 -75 -18 -60 -19 -123 -34 -175 -43 -65 -10 -156 -29 -225 -45 -62
-15 -174 -34 -270 -46 -36 -4 -83 -12 -105 -18 -22 -6 -61 -11 -87 -11 -26 0
-80 -6 -120 -14 -80 -16 -232 -33 -403 -46 -60 -5 -143 -16 -184 -25 -40 -9
-76 -14 -78 -11 -3 2 -6 193 -7 423 -1 230 -4 427 -6 438 -5 22 -28 19 311 44
81 6 166 15 190 20 24 6 71 11 104 11 33 0 78 5 100 11 22 5 78 14 125 19 47
4 111 13 143 19 144 27 176 33 237 41 36 5 81 13 100 19 19 6 48 11 64 11 16
0 52 6 80 14 28 8 87 22 131 31 44 9 98 23 120 31 23 8 49 14 59 14 10 0 39 6
65 14 25 8 71 21 101 29 68 18 253 75 300 92 19 7 62 20 95 30 33 10 71 24 85
31 14 6 45 19 70 29 25 9 58 23 73 31 16 8 33 14 39 14 17 0 339 159 373 184
17 13 37 26 45 30 34 16 141 86 158 103 7 7 16 13 20 13 4 0 23 15 44 33 20
17 47 41 60 53 25 22 89 95 127 144 13 17 29 29 35 27 7 -2 9 -92 7 -293z
m-5100 -1175 c-1 -184 -2 -338 -1 -344 8 -155 9 -159 82 -246 43 -51 45 -60
20 -76 -29 -17 -211 -14 -239 4 -13 9 -23 18 -23 22 0 3 20 28 45 55 89 95 85
73 86 520 0 216 3 397 6 400 23 23 26 -21 24 -335z m1349 313 l25 -19 3 -405
2 -404 -22 -21 c-21 -20 -36 -22 -198 -24 l-175 -3 -3 67 c-3 63 -1 70 30 110
67 86 73 102 72 217 -1 96 -3 109 -30 155 -69 121 -168 179 -304 179 -136 0
-235 -58 -305 -179 -26 -46 -29 -58 -29 -155 -1 -115 5 -132 72 -217 31 -40
33 -47 30 -110 l-3 -67 -175 3 c-162 2 -177 4 -198 24 l-22 21 2 405 3 405 30
21 c30 20 42 20 600 18 542 -2 570 -3 595 -21z m164 -14 c12 -58 11 -71 -1
-75 -8 -3 -13 5 -13 21 0 13 -4 28 -10 31 -11 7 -14 48 -4 58 11 11 21 -2 28
-35z m16 -144 c0 -15 -6 -24 -15 -24 -15 0 -21 40 -9 53 12 11 24 -3 24 -29z
m0 -90 c0 -15 -6 -24 -15 -24 -15 0 -21 40 -9 53 12 11 24 -3 24 -29z m-667
-69 c36 -23 77 -76 77 -99 0 -12 7 -30 15 -40 20 -26 19 -58 -2 -84 -10 -11
-23 -28 -29 -38 -20 -34 -33 -5 -31 69 1 63 -2 78 -22 103 -27 34 -83 64 -121
64 -37 0 -94 -30 -121 -64 -18 -23 -23 -42 -23 -100 -1 -59 -4 -71 -18 -74
-10 -2 -18 1 -18 6 0 5 -9 19 -20 32 -24 27 -26 72 -5 90 8 7 15 21 15 32 0
24 42 81 78 104 14 9 46 22 72 29 49 12 105 2 153 -30z m667 -21 c0 -15 -6
-24 -15 -24 -15 0 -21 40 -9 53 12 11 24 -3 24 -29z m0 -90 c0 -15 -6 -24 -15
-24 -15 0 -21 40 -9 53 12 11 24 -3 24 -29z m-745 -478 c0 -398 -1 -430 -17
-440 -13 -8 -23 -8 -35 0 -17 10 -18 44 -21 430 -1 230 0 425 3 432 3 8 17 12
37 10 l33 -3 0 -429z m745 388 c0 -15 -6 -24 -15 -24 -15 0 -21 40 -9 53 12
11 24 -3 24 -29z m0 -90 c0 -15 -6 -24 -15 -24 -15 0 -21 40 -9 53 12 11 24
-3 24 -29z m0 -84 c0 -19 -17 -36 -26 -27 -3 2 -2 16 2 31 7 28 24 26 24 -4z
m15 -102 c14 -29 50 -79 81 -111 53 -55 55 -59 38 -72 -15 -11 -49 -13 -147
-10 -71 2 -131 6 -133 8 -6 6 33 76 56 102 11 11 31 46 45 78 15 31 28 57 31
57 2 0 15 -24 29 -52z m-925 -203 c0 -52 -2 -95 -5 -95 -7 0 -64 39 -92 64
-13 11 -23 27 -23 36 0 17 87 89 108 90 9 0 12 -26 12 -95z m338 54 c38 -36
39 -41 11 -86 -21 -33 -62 -59 -79 -48 -4 2 -10 31 -12 62 -9 104 19 129 80
72z m-440 -167 c2 -15 -7 -34 -28 -55 -61 -62 -75 -101 -74 -212 0 -117 17
-159 97 -238 68 -68 139 -97 237 -97 97 0 164 27 235 96 81 79 99 120 99 239
1 111 -13 150 -74 212 -39 40 -39 80 0 74 14 -2 182 -6 374 -10 l348 -6 34
-39 34 -39 0 -790 c0 -783 0 -789 -21 -815 -11 -15 -33 -35 -47 -44 -25 -17
-85 -18 -964 -18 -1025 0 -977 -3 -1022 58 -19 25 -19 50 -18 820 2 791 2 794
23 824 12 16 32 34 46 39 13 5 165 9 336 10 172 0 321 4 332 9 31 14 50 7 53
-18z m86 -234 c5 -48 12 -68 33 -90 57 -59 158 -62 219 -5 30 28 35 40 41 95
4 42 10 62 19 62 8 0 14 -6 14 -14 0 -7 7 -19 15 -26 37 -31 0 -135 -68 -195
-84 -74 -170 -74 -254 0 -37 33 -55 58 -67 94 -20 62 -20 72 2 110 26 46 38
38 46 -31z"/>
<path d="M3785 2577 c-57 -11 -145 -65 -171 -105 -52 -77 -58 -95 -58 -189 -1
-80 2 -98 24 -138 13 -25 28 -45 32 -45 5 0 8 -9 8 -20 0 -11 -4 -20 -9 -20
-5 0 -19 -19 -32 -42 -20 -36 -23 -58 -23 -138 0 -109 16 -152 84 -220 56 -56
117 -80 206 -80 114 0 181 33 250 124 30 39 35 53 52 136 l7 35 348 3 347 2 0
-39 c0 -83 74 -191 163 -237 45 -24 64 -27 142 -28 104 0 149 18 215 84 63 63
82 118 78 226 -3 79 -6 95 -29 125 -37 49 -40 65 -20 91 41 52 51 86 51 168 0
98 -21 152 -85 215 -69 69 -115 88 -215 88 -78 -1 -89 -3 -142 -34 -88 -52
-158 -157 -158 -235 l0 -34 -347 2 -348 3 -3 25 c-16 146 -108 249 -250 279
-29 6 -56 10 -60 10 -4 -1 -29 -6 -57 -12z m161 -178 c41 -38 64 -92 64 -151
1 -61 16 -85 72 -111 33 -16 76 -17 424 -17 357 1 389 2 423 19 48 25 71 67
71 129 0 96 58 153 154 154 94 1 149 -56 149 -154 0 -57 -1 -61 -46 -106 -39
-40 -47 -54 -47 -86 0 -31 8 -47 44 -87 66 -73 71 -160 13 -219 -38 -39 -65
-50 -118 -50 -88 0 -149 66 -149 161 0 66 -20 99 -80 129 -36 19 -60 20 -422
19 -410 -1 -410 -1 -465 -53 -16 -15 -23 -33 -23 -62 -1 -161 -155 -248 -263
-149 -66 60 -69 165 -8 219 37 31 64 83 57 110 -3 12 -23 42 -45 66 -72 80
-75 164 -9 227 43 40 52 43 120 40 45 -3 64 -9 84 -28z"/>
</g>
</svg>
